<mxfile host="Electron" modified="2023-12-04T03:02:06.883Z" agent="Mozilla/5.0 (Macintosh; Intel Mac OS X 10_15_7) AppleWebKit/537.36 (KHTML, like Gecko) draw.io/22.1.2 Chrome/114.0.5735.289 Electron/25.9.4 Safari/537.36" etag="N5dFobKtTwMQjjvTtWuk" version="22.1.2" type="device">
  <diagram name="ページ1" id="p9lOTxBn-soGU7BZFUNQ">
    <mxGraphModel dx="932" dy="793" grid="1" gridSize="10" guides="1" tooltips="1" connect="1" arrows="1" fold="1" page="1" pageScale="1" pageWidth="827" pageHeight="1169" math="0" shadow="0">
      <root>
        <mxCell id="0" />
        <mxCell id="1" parent="0" />
        <mxCell id="3CYxaYa2hoFxP0RACQ9b-7" style="rounded=0;orthogonalLoop=1;jettySize=auto;html=1;entryX=0;entryY=0.5;entryDx=0;entryDy=0;" parent="1" target="3CYxaYa2hoFxP0RACQ9b-3" edge="1">
          <mxGeometry relative="1" as="geometry">
            <mxPoint x="80" y="280" as="sourcePoint" />
          </mxGeometry>
        </mxCell>
        <mxCell id="3CYxaYa2hoFxP0RACQ9b-8" style="rounded=0;orthogonalLoop=1;jettySize=auto;html=1;entryX=0;entryY=0.5;entryDx=0;entryDy=0;" parent="1" source="3CYxaYa2hoFxP0RACQ9b-1" target="3CYxaYa2hoFxP0RACQ9b-4" edge="1">
          <mxGeometry relative="1" as="geometry" />
        </mxCell>
        <mxCell id="3CYxaYa2hoFxP0RACQ9b-9" style="rounded=0;orthogonalLoop=1;jettySize=auto;html=1;entryX=0;entryY=0.5;entryDx=0;entryDy=0;" parent="1" source="3CYxaYa2hoFxP0RACQ9b-1" target="3CYxaYa2hoFxP0RACQ9b-6" edge="1">
          <mxGeometry relative="1" as="geometry" />
        </mxCell>
        <mxCell id="3CYxaYa2hoFxP0RACQ9b-10" style="rounded=0;orthogonalLoop=1;jettySize=auto;html=1;entryX=0;entryY=0.5;entryDx=0;entryDy=0;" parent="1" target="3CYxaYa2hoFxP0RACQ9b-5" edge="1">
          <mxGeometry relative="1" as="geometry">
            <mxPoint x="80" y="330" as="sourcePoint" />
          </mxGeometry>
        </mxCell>
        <mxCell id="3CYxaYa2hoFxP0RACQ9b-1" value="一般ユーザ" style="shape=umlActor;verticalLabelPosition=bottom;verticalAlign=top;html=1;" parent="1" vertex="1">
          <mxGeometry x="40" y="260" width="40" height="80" as="geometry" />
        </mxCell>
        <mxCell id="3CYxaYa2hoFxP0RACQ9b-2" value="庭管理アプリ" style="shape=umlFrame;whiteSpace=wrap;html=1;pointerEvents=0;width=110;height=40;" parent="1" vertex="1">
          <mxGeometry x="120" y="40" width="280" height="520" as="geometry" />
        </mxCell>
        <mxCell id="3CYxaYa2hoFxP0RACQ9b-3" value="水やり情報を管理する" style="ellipse;whiteSpace=wrap;html=1;" parent="1" vertex="1">
          <mxGeometry x="190" y="100" width="140" height="70" as="geometry" />
        </mxCell>
        <mxCell id="3CYxaYa2hoFxP0RACQ9b-4" value="植物の情報を管理する" style="ellipse;whiteSpace=wrap;html=1;" parent="1" vertex="1">
          <mxGeometry x="190" y="220" width="140" height="70" as="geometry" />
        </mxCell>
        <mxCell id="3CYxaYa2hoFxP0RACQ9b-5" value="通知の設定をする" style="ellipse;whiteSpace=wrap;html=1;" parent="1" vertex="1">
          <mxGeometry x="190" y="460" width="140" height="70" as="geometry" />
        </mxCell>
        <mxCell id="3CYxaYa2hoFxP0RACQ9b-6" value="カレンダーの管理をする" style="ellipse;whiteSpace=wrap;html=1;" parent="1" vertex="1">
          <mxGeometry x="190" y="340" width="140" height="70" as="geometry" />
        </mxCell>
      </root>
    </mxGraphModel>
  </diagram>
</mxfile>
